# xmcd
#
# Track frame offsets: 
#        150
#        20976
#        36235
#        51282
#        69442
#        90165
#        106015
#        128597
#        142234
#        165935
#        186332
#        202218
#        217669
#
# Disc length: 3210 seconds
#
# Revision: 2
# Processed by: cddbd v1.5.2PL0 Copyright (c) Steve Scherf et al.
# Submitted via: ExactAudioCopy v1.0b3
#
DISCID=b40c880d
DTITLE=Jumprava - Trajektorija
DYEAR=2001
DGENRE=Synthpop
TTITLE0=Lidosta mehāniskiem putniem
TTITLE1=Dzinējsuns
TTITLE2=Ringā
TTITLE3=Pūķis skrien
TTITLE4=Jo es krītu
TTITLE5=Kino
TTITLE6=Divi putni
TTITLE7=Anastasijas vārdi
TTITLE8=Baiga vasara
TTITLE9=Necke
TTITLE10=Krāsas
TTITLE11=Trajektorija
TTITLE12=Nedaudz par viņu
EXTD=
EXTT0=
EXTT1=
EXTT2=
EXTT3=
EXTT4=
EXTT5=
EXTT6=
EXTT7=
EXTT8=
EXTT9=
EXTT10=
EXTT11=
EXTT12=
PLAYORDER=
